<?xml version="1.0" standalone="no"?>
<!DOCTYPE svg PUBLIC "-//W3C//DTD SVG 20010904//EN"
 "http://www.w3.org/TR/2001/REC-SVG-20010904/DTD/svg10.dtd">
<svg version="1.0" xmlns="http://www.w3.org/2000/svg"
 width="800.000000pt" height="800.000000pt" viewBox="0 0 800.000000 800.000000"
 preserveAspectRatio="xMidYMid meet">
<metadata>
Created by potrace 1.16, written by Peter Selinger 2001-2019
</metadata>
<g transform="translate(0.000000,800.000000) scale(0.100000,-0.100000)"
fill="#000000" stroke="none">
<path d="M5110 7007 c-40 -20 -209 -308 -289 -494 -122 -281 -181 -517 -210
-841 l-16 -183 -100 72 c-140 100 -233 142 -400 181 -89 21 -208 24 -561 15
l-61 -2 -133 128 c-404 392 -799 608 -1353 741 -238 58 -318 44 -287 -49 26
-77 315 -431 501 -611 249 -241 481 -392 779 -506 47 -18 85 -37 85 -43 -1 -5
-43 -95 -94 -200 -313 -638 -296 -595 -296 -765 0 -123 1 -127 49 -265 27 -77
49 -146 50 -154 1 -9 -16 -14 -54 -17 -206 -17 -374 -121 -451 -281 -29 -60
-34 -80 -37 -170 -5 -114 15 -192 71 -288 42 -72 52 -81 159 -151 64 -41 98
-70 98 -82 0 -33 -39 -160 -101 -323 -159 -423 -227 -660 -236 -819 -7 -127 3
-167 57 -238 22 -29 40 -54 40 -56 0 -3 -43 -27 -95 -56 -52 -28 -112 -65
-132 -83 -83 -73 -84 -176 -1 -218 47 -24 159 -25 333 -5 66 8 183 22 260 31
191 22 242 43 279 117 11 21 22 24 131 35 203 20 321 16 448 -12 131 -30 381
-80 450 -90 44 -7 87 -35 87 -56 0 -5 15 -20 34 -34 27 -21 62 -30 177 -50 79
-14 184 -38 234 -55 311 -107 446 -107 475 1 14 52 7 92 -25 141 -35 53 -145
141 -237 188 -43 23 -78 46 -78 51 0 5 6 22 14 37 7 15 21 59 31 97 15 65 15
80 1 180 -8 61 -11 114 -7 118 5 5 24 2 44 -6 51 -22 144 -39 167 -32 31 10
52 100 59 259 7 159 -2 148 98 121 95 -25 99 -22 230 200 62 105 127 218 145
253 29 58 34 63 57 57 40 -9 364 -109 586 -180 281 -90 287 -91 335 -70 21 9
58 40 81 69 47 56 133 147 365 386 268 276 274 284 274 343 0 33 -2 35 -99 80
-444 210 -1088 382 -1443 388 -49 1 -88 3 -88 6 0 2 15 33 34 69 40 74 55 159
35 195 -6 13 -27 41 -45 62 -18 22 -37 60 -44 88 -18 73 -44 89 -144 89 -137
0 -292 -31 -418 -84 -63 -27 -66 -24 -56 42 5 31 23 120 40 197 27 122 31 161
33 305 l1 165 82 165 c183 368 244 692 244 1295 0 293 -16 438 -62 558 -19 50
-25 57 -48 57 -15 0 -38 -6 -52 -13z m-165 -599 c55 -45 82 -78 138 -167 61
-97 71 -136 62 -236 -14 -165 -80 -379 -201 -656 -128 -293 -123 -272 -98
-442 18 -124 13 -184 -36 -422 -16 -77 -32 -168 -36 -202 l-7 -63 -51 0 c-67
0 -136 -33 -208 -99 -126 -115 -152 -259 -71 -383 21 -31 23 -41 13 -53 -19
-23 -108 -79 -207 -129 -96 -49 -110 -60 -93 -71 33 -21 234 73 378 178 169
121 240 217 250 335 6 67 28 85 170 142 114 46 214 68 350 77 l92 6 0 -71 c0
-59 3 -70 15 -66 8 4 15 12 15 20 0 21 13 16 39 -17 20 -26 22 -33 11 -53 -9
-18 -9 -29 -1 -45 10 -18 8 -23 -14 -33 -15 -7 -25 -19 -25 -33 0 -31 -30
-115 -41 -115 -5 0 -25 6 -43 14 -35 15 -56 7 -56 -21 0 -27 -43 -97 -88 -145
-64 -68 -173 -144 -397 -278 -269 -160 -336 -214 -377 -308 -13 -28 -18 -59
-16 -95 l3 -52 38 1 c42 1 43 -2 28 -82 -5 -27 -15 -116 -22 -197 -14 -171 -4
-273 37 -384 61 -162 76 -214 94 -323 38 -220 24 -336 -47 -403 l-30 -28 -27
41 c-66 100 -196 170 -391 211 -138 30 -424 12 -780 -46 -49 -9 -155 -18 -235
-21 -139 -6 -150 -5 -255 24 -60 16 -153 41 -206 55 -54 15 -116 28 -140 29
-37 3 -45 0 -56 -22 -7 -14 -13 -47 -13 -75 l-1 -50 -35 39 c-19 22 -39 58
-45 80 -14 52 -5 235 15 296 8 25 22 70 31 100 9 30 42 125 72 210 60 168 156
441 205 585 17 50 37 97 45 106 10 12 42 18 132 23 194 11 313 39 464 112 l68
33 36 -25 c31 -21 52 -29 53 -21 1 1 3 20 6 42 8 63 10 65 59 65 48 0 55 10
30 44 -22 29 -18 42 15 56 17 7 30 19 30 26 0 12 6 11 27 -3 40 -26 145 -24
203 5 56 27 122 81 115 93 -4 5 -41 9 -83 9 -129 0 -276 36 -317 77 -14 13
-13 18 10 45 35 41 32 58 -7 58 -52 1 -99 22 -172 78 -89 69 -232 136 -320
151 -90 16 -120 32 -150 84 -26 44 -81 186 -75 191 2 2 32 22 67 45 78 53 126
116 153 204 41 132 11 257 -84 355 l-42 43 34 97 c52 149 111 265 205 401 47
69 86 132 86 140 -1 29 -374 277 -629 417 -158 87 -198 122 -212 185 -15 64
-1 269 18 269 62 0 290 -110 442 -213 231 -157 518 -406 548 -475 13 -31 16
-33 51 -28 20 3 111 8 202 11 280 11 445 -18 645 -114 110 -53 182 -103 306
-213 150 -133 149 -133 149 -108 0 11 -15 36 -34 55 -19 18 -37 48 -41 66 -22
98 84 761 153 959 23 66 53 130 62 130 3 0 23 -15 45 -32z m-2057 -2499 c139
-15 311 -63 392 -111 19 -11 67 -47 107 -81 67 -56 73 -64 68 -92 -5 -26 0
-33 35 -57 47 -32 49 -41 15 -56 -27 -13 -32 -31 -13 -50 10 -10 7 -17 -16
-35 -28 -23 -29 -24 -11 -50 9 -15 13 -27 9 -28 -5 -1 -20 -2 -34 -2 -21 -2
-25 -7 -28 -39 -4 -43 -6 -44 -57 -22 -33 14 -51 14 -142 3 -61 -7 -146 -9
-206 -6 -100 6 -368 47 -437 67 -52 15 -108 12 -141 -7 -15 -9 -30 -15 -32
-12 -18 22 -60 145 -64 186 -15 140 98 301 254 362 43 17 121 33 191 40 7 0
56 -4 110 -10z m2689 -184 c475 -63 1145 -239 1405 -371 l49 -25 -37 -42 c-21
-23 -134 -148 -253 -277 -119 -129 -247 -269 -286 -311 -38 -42 -74 -77 -79
-78 -5 -1 -57 45 -115 102 -124 120 -237 208 -416 327 -197 131 -440 268 -548
309 -25 10 -29 8 -38 -16 -27 -71 -57 -196 -99 -408 -65 -325 -91 -446 -99
-463 -5 -8 -26 2 -71 35 -100 72 -260 203 -260 213 0 4 21 2 48 -6 60 -18 187
-30 195 -18 3 5 19 75 36 154 29 140 57 263 120 532 31 136 33 140 154 296
l49 62 63 0 c35 0 117 -7 182 -15z m-531 -373 c-5 -8 -25 -111 -62 -322 -34
-194 -51 -280 -56 -285 -3 -3 -59 6 -124 20 -141 30 -192 32 -201 9 -7 -19 14
-289 32 -413 l12 -83 -41 5 c-48 7 -72 32 -82 85 -10 54 15 476 32 533 12 40
23 54 77 92 108 78 219 176 310 273 49 52 93 94 98 94 6 0 8 -4 5 -8z m-2528
-1832 c17 -11 32 -26 32 -34 0 -46 -190 -159 -287 -172 -78 -10 -67 9 32 58
47 23 85 47 85 55 0 7 -4 13 -9 13 -28 0 -125 -39 -179 -73 -35 -22 -65 -37
-69 -34 -3 3 8 26 23 51 30 48 56 64 199 125 82 36 128 38 173 11z m2239 -164
c47 -22 149 -104 140 -112 -2 -2 -41 18 -87 46 -89 54 -100 58 -100 36 0 -7
41 -38 91 -67 85 -50 115 -77 107 -99 -2 -5 -25 9 -53 31 -64 52 -184 114
-197 101 -11 -11 35 -46 105 -82 56 -29 115 -75 106 -84 -7 -7 -202 42 -304
77 -38 13 -100 34 -137 47 -38 13 -68 26 -68 30 0 21 246 98 315 99 17 1 53
-10 82 -23z"/>
<path d="M3272 5119 c-105 -52 -131 -180 -55 -270 51 -61 114 -74 190 -39 93
42 121 178 55 265 -49 65 -116 81 -190 44z m157 -55 c12 -15 21 -34 21 -44 0
-31 -39 -70 -70 -70 -19 0 -36 9 -49 26 -27 34 -27 62 1 91 29 31 71 30 97 -3z"/>
<path d="M3820 4783 c-29 -10 -60 -47 -60 -70 0 -37 42 -73 85 -73 41 0 85 36
85 69 0 43 -68 88 -110 74z"/>
<path d="M4390 4768 c-65 -33 -92 -84 -87 -165 3 -70 22 -103 77 -140 68 -47
176 -20 218 55 39 70 25 178 -30 229 -51 48 -111 54 -178 21z m93 -36 c27 -24
22 -76 -10 -101 -30 -24 -55 -21 -90 12 -27 24 -29 44 -7 75 29 42 69 47 107
14z"/>
<path d="M3438 4443 c8 -439 68 -660 190 -697 50 -16 144 57 265 204 87 105
118 151 183 274 43 82 66 115 95 135 30 20 38 32 36 51 -2 24 -5 25 -59 22
-65 -4 -73 -1 -190 85 -118 87 -143 96 -221 83 -34 -5 -98 -10 -143 -10 -68 0
-84 3 -99 20 -10 11 -28 20 -39 20 -22 0 -22 -2 -18 -187z m385 -47 c21 -8 52
-24 70 -36 39 -27 97 -101 97 -123 0 -40 -144 -241 -232 -323 -30 -28 -69 -59
-88 -69 -34 -17 -34 -17 -56 8 -53 62 -97 274 -92 442 l3 90 45 12 c62 16 207
15 253 -1z"/>
</g>
</svg>
